# xmcd
#
# Track frame offsets: 
#        150
#        16462
#        33533
#        49103
#        64355
#        78579
#        95845
#        112202
#
# Disc length: 1700 seconds
#
# Revision: 0
# Processed by: cddbd v1.5.2PL0 Copyright (c) Steve Scherf et al.
# Submitted via: ExactAudioCopy v0.99pb5
#
DISCID=7206a208
DTITLE=Amely - Hello World
DYEAR=2010
DGENRE=Pop Punk
TTITLE0=Now Or Never
TTITLE1=Sing To You
TTITLE2=I'd Rather Be Alone
TTITLE3=Say Goodbye
TTITLE4=Come Back To Me
TTITLE5=All You Need
TTITLE6=Have You Ever Known
TTITLE7=Hello World
EXTD=
EXTT0=
EXTT1=
EXTT2=
EXTT3=
EXTT4=
EXTT5=
EXTT6=
EXTT7=
PLAYORDER=
